#tb 0: 1/90000
0,      32400,      32400,        0,   622080, 0xb3b66c5c
0,      36000,      36000,        0,   622080, 0x088ec02b
0,      39600,      39600,        0,   622080, 0x7a36db21
0,      43200,      43200,        0,   622080, 0x541b286f
0,      46800,      46800,        0,   622080, 0xb6c3e590
0,      50400,      50400,        0,   622080, 0x39dbed51
0,      54000,      54000,        0,   622080, 0x973dc728
0,      57600,      57600,        0,   622080, 0xd7a4f804
0,      61200,      61200,        0,   622080, 0xa2484762
0,      64800,      64800,        0,   622080, 0x0cd268d1
0,      68400,      68400,        0,   622080, 0x72eb663d
0,      72000,      72000,        0,   622080, 0x8fdbac59
0,      75600,      75600,        0,   622080, 0xa6f4feb9
0,      79200,      79200,        0,   622080, 0xadb828c6
0,      82800,      82800,        0,   622080, 0xea630a63
0,      86400,      86400,        0,   622080, 0xa901d925
0,      90000,      90000,        0,   622080, 0xac5e7087
0,      93600,      93600,        0,   622080, 0x10274a2b
0,      97200,      97200,        0,   622080, 0x143d541c
0,     100800,     100800,        0,   622080, 0xee94c93a
0,     104400,     104400,        0,   622080, 0xca030208
0,     108000,     108000,        0,   622080, 0x26f30ead
0,     111600,     111600,        0,   622080, 0xfc22f32c
0,     115200,     115200,        0,   622080, 0x940a5ff8
0,     118800,     118800,        0,   622080, 0x2164f805
0,     122400,     122400,        0,   622080, 0xa76f5aba
0,     126000,     126000,        0,   622080, 0x8c311471
0,     129600,     129600,        0,   622080, 0xa45e1d95
0,     133200,     133200,        0,   622080, 0x6cc61d6c
0,     136800,     136800,        0,   622080, 0x6983b417
